# xmcd CD database file
#
# Track frame offsets:
#	150
#	14454
#	30313
#	44259
#	61417
#	76355
#	88768
#	105028
#	119614
#	136443
#	150056
#	165199
#
# Disc length: 2518 seconds
#
# Revision: 0
# Processed by: cddbd v1.5.2PL0 Copyright (c) Steve Scherf et al.
# Submitted via: CDex 1.70beta2
#
DISCID=7f09d40c
DTITLE=pierre beland - une femme contry
DYEAR=1900
DGENRE=Country
TTITLE0=Attend moi
TTITLE1=Priere d'une mere
TTITLE2=Guitares cadillacs
TTITLE3=Dans le vent
TTITLE4=All you ever do in bring me down 
TTITLE5=Si on pensait un peu a nous
TTITLE6=Le country boogie
TTITLE7=La chanson du prisonnier
TTITLE8=down ar the twist and shout
TTITLE9=sur ma table un verre vide
TTITLE10=j'ai cru voir une larme dans tes yeux
TTITLE11=les mals  aimer
EXTD=
EXTT0=
EXTT1=
EXTT2=
EXTT3=
EXTT4=
EXTT5=
EXTT6=
EXTT7=
EXTT8=
EXTT9=
EXTT10=
EXTT11=
PLAYORDER=
